<?xml version="1.0" encoding="UTF-8" standalone="no"?>
<!-- Created with Inkscape (http://www.inkscape.org/) -->

<svg
   xmlns:dc="http://purl.org/dc/elements/1.1/"
   xmlns:cc="http://creativecommons.org/ns#"
   xmlns:rdf="http://www.w3.org/1999/02/22-rdf-syntax-ns#"
   xmlns:svg="http://www.w3.org/2000/svg"
   xmlns="http://www.w3.org/2000/svg"
   xmlns:xlink="http://www.w3.org/1999/xlink"
   xmlns:sodipodi="http://sodipodi.sourceforge.net/DTD/sodipodi-0.dtd"
   xmlns:inkscape="http://www.inkscape.org/namespaces/inkscape"
   width="77.406128mm"
   height="61.275326mm"
   viewBox="0 0 77.406128 61.275326"
   version="1.1"
   id="svg8"
   inkscape:version="0.92.3 (2405546, 2018-03-11)"
   sodipodi:docname="pptkaraoke_logo.svg">
  <defs
     id="defs2">
    <linearGradient
       id="linearGradient4655"
       inkscape:collect="always">
      <stop
         id="stop4667"
         offset="0"
         style="stop-color:#8900c2;stop-opacity:1" />
      <stop
         id="stop4669"
         offset="1"
         style="stop-color:#bf008f;stop-opacity:1" />
    </linearGradient>
    <linearGradient
       inkscape:collect="always"
       xlink:href="#linearGradient4655"
       id="linearGradient4674"
       x1="245.54024"
       y1="857.5603"
       x2="537.08868"
       y2="625.73029"
       gradientUnits="userSpaceOnUse" />
    <linearGradient
       inkscape:collect="always"
       xlink:href="#linearGradient4655"
       id="linearGradient4769"
       x1="95.879387"
       y1="194.55698"
       x2="111.19839"
       y2="194.55698"
       gradientUnits="userSpaceOnUse" />
    <linearGradient
       inkscape:collect="always"
       xlink:href="#linearGradient4655"
       id="linearGradient4771"
       gradientUnits="userSpaceOnUse"
       x1="95.879387"
       y1="194.55698"
       x2="111.19839"
       y2="194.55698"
       gradientTransform="translate(0,-0.2001825)" />
    <linearGradient
       inkscape:collect="always"
       xlink:href="#linearGradient4655"
       id="linearGradient4778"
       gradientUnits="userSpaceOnUse"
       x1="245.54024"
       y1="857.5603"
       x2="537.08868"
       y2="625.73029" />
  </defs>
  <sodipodi:namedview
     id="base"
     pagecolor="#ffffff"
     bordercolor="#666666"
     borderopacity="1.0"
     inkscape:pageopacity="0.0"
     inkscape:pageshadow="2"
     inkscape:zoom="0.7"
     inkscape:cx="35.94445"
     inkscape:cy="141.15658"
     inkscape:document-units="mm"
     inkscape:current-layer="layer1"
     showgrid="false"
     inkscape:window-width="1366"
     inkscape:window-height="715"
     inkscape:window-x="-8"
     inkscape:window-y="-8"
     inkscape:window-maximized="1" />
  <metadata
     id="metadata5">
    <rdf:RDF>
      <cc:Work
         rdf:about="">
        <dc:format>image/svg+xml</dc:format>
        <dc:type
           rdf:resource="http://purl.org/dc/dcmitype/StillImage" />
        <dc:title />
      </cc:Work>
    </rdf:RDF>
  </metadata>
  <g
     inkscape:label="Layer 1"
     inkscape:groupmode="layer"
     id="layer1">
    <g
       id="g4776"
       transform="translate(-64.832219,-165.38887)">
      <path
         transform="scale(0.26458333)"
         d="m 262.05664,625.0918 c -9.08559,0 -17.02148,6.52376 -17.02148,15.20508 0,8.68127 7.93589,15.20703 17.02148,15.20703 h 28.33984 v 151.72851 c 0,10.85167 8.84897,19.70117 19.70118,19.70117 h 77.43945 v 18.49414 c -1.50798,1.15612 -2.49805,2.96777 -2.49805,4.98047 4e-5,3.42327 2.85209,6.27539 6.27539,6.27539 3.42327,0 6.28118,-2.85212 6.28125,-6.27539 0,-2.01173 -0.99114,-3.82232 -2.5,-4.97851 v -18.4961 h 77.4336 c 10.85219,0 19.70898,-8.84897 19.70898,-19.70117 V 655.50391 h 28.33984 c 9.08557,0 17.01563,-6.52576 17.01563,-15.20703 0,-8.68132 -7.93006,-15.20508 -17.01563,-15.20508 z m 0,7.55859 h 258.52148 c 5.58346,0 9.45704,3.66494 9.45704,7.64649 0,3.9815 -3.87358,7.64843 -9.45704,7.64843 H 262.05664 c -5.58348,0 -9.46289,-3.66693 -9.46289,-7.64843 0,-3.98159 3.87941,-7.64649 9.46289,-7.64649 z m 35.89844,22.85352 h 186.72461 v 151.72851 c 0,6.79476 -5.35563,12.14258 -12.15039,12.14258 H 310.09766 c -6.79477,0 -12.14258,-5.34725 -12.14258,-12.14258 z m 94.00089,38.44338 c -5.75406,0 -10.86567,1.1889 -15.26562,3.5957 -4.34537,2.37694 -7.71953,5.42943 -10.03321,9.14648 -2.28402,3.63198 -3.47656,7.32264 -3.47656,11.00586 0,2.01876 0.87743,3.92545 2.41406,5.54297 l 0.008,0.0156 0.0137,0.0156 c 1.62354,1.62354 3.73831,2.48825 6.05469,2.48828 1.96661,0 3.77221,-0.62573 5.17382,-1.85351 1.40164,-1.22778 2.38365,-2.99107 3.04102,-5.17578 l -0.008,0.0391 c 1.24407,-3.73228 2.75182,-6.46484 4.4082,-8.2168 l 0.006,-0.008 c 1.52772,-1.64523 3.97135,-2.56055 7.66406,-2.56055 3.08701,0 5.41599,0.86106 7.25586,2.57618 l 0.008,0.008 c 1.8971,1.739 2.76758,3.70266 2.76758,6.21484 0,1.24022 -0.28541,2.33989 -0.88476,3.38867 l -0.008,0.0156 -0.008,0.0137 c -0.61425,1.13151 -1.39409,2.16362 -2.33984,3.10938 -0.95297,0.95297 -2.5843,2.44657 -4.85743,4.43554 -2.62964,2.30544 -4.72653,4.31336 -6.3125,6.04688 -1.64685,1.76352 -2.96536,3.83163 -3.94921,6.17773 -1.01492,2.38401 -1.49805,5.15296 -1.49805,8.28906 0,2.62942 0.71746,4.86002 2.28906,6.38672 l 0.008,0.008 0.006,0.006 c 1.52406,1.43936 3.50207,2.19336 5.65625,2.19336 2.02171,0 3.81805,-0.54848 5.16602,-1.72656 1.34801,-1.17808 2.16972,-2.89637 2.54687,-4.96094 l -0.008,0.0508 c 0.38619,-1.72017 0.65975,-2.89988 0.82813,-3.54296 l 0.006,-0.0234 c 0.001,-0.004 0.008,-0.0177 0.008,-0.0215 0.18671,-0.61209 0.43636,-1.21223 0.74609,-1.80078 l 0.008,-0.008 v -0.0156 c 0.28725,-0.57479 0.75913,-1.25795 1.41797,-2.01563 0.69786,-0.79748 1.64575,-1.74334 2.82618,-2.82031 4.39521,-3.93067 7.42469,-6.71511 9.13867,-8.39258 1.81561,-1.77781 3.36483,-3.8768 4.63672,-6.26758 v -0.008 c 1.36921,-2.50639 2.03711,-5.40252 2.03711,-8.62109 0,-4.11183 -1.17905,-7.97616 -3.49219,-11.46485 -2.28522,-3.50029 -5.54493,-6.25739 -9.69141,-8.23828 h -0.008 c -4.17048,-2.0276 -8.95726,-3.02539 -14.29883,-3.02539 z m 0,2.73828 c 5.00402,0 9.35171,0.92968 13.10156,2.7539 l 0.008,0.008 h 0.008 c 3.76932,1.79973 6.59621,4.21158 8.5918,7.27148 v 0.008 h 0.008 c 2.04022,3.07707 3.03515,6.35533 3.03515,9.95118 0,2.84503 -0.57866,5.25476 -1.70507,7.31445 v 0.008 l -0.008,0.008 c -1.15211,2.16873 -2.53031,4.03161 -4.13476,5.60352 -1.64032,1.60539 -4.67368,4.3908 -9.05664,8.31055 l -0.008,0.008 c -1.2395,1.13015 -2.25848,2.14449 -3.05665,3.05664 -0.76051,0.87466 -1.36161,1.7168 -1.78711,2.56055 -0.004,0.008 -0.002,0.0159 -0.006,0.0234 -0.001,0.003 -0.008,0.004 -0.008,0.008 -0.38936,0.74419 -0.70063,1.51323 -0.9375,2.30273 l -0.008,0.0234 -0.008,0.0215 c -0.18936,0.71913 -0.47716,1.93654 -0.8711,3.69141 v 0.0312 l -0.008,0.0215 c -0.30085,1.64648 -0.87911,2.71904 -1.6543,3.39649 -0.77518,0.67748 -1.81857,1.04687 -3.36523,1.04687 -1.55059,0 -2.71591,-0.46067 -3.75781,-1.43945 -0.92372,-0.89987 -1.46094,-2.2651 -1.46094,-4.41406 0,-2.85608 0.44633,-5.25857 1.28516,-7.22657 v -0.008 c 0.87035,-2.07541 2.01288,-3.8553 3.43164,-5.37305 h 0.008 l 0.008,-0.008 c 1.48282,-1.62073 3.51753,-3.57779 6.09766,-5.83984 2.29444,-2.00761 3.94497,-3.50942 4.99023,-4.55469 1.12007,-1.12002 2.05636,-2.36574 2.79688,-3.72656 0.82265,-1.44533 1.24023,-3.05997 1.24023,-4.74024 0,-3.1937 -1.26666,-6.03737 -3.64648,-8.22265 -2.37082,-2.21008 -5.5035,-3.31446 -9.125,-3.31445 -4.1534,0 -7.47864,1.07761 -9.66211,3.42382 -2.0547,2.17327 -3.6866,5.26095 -5.01172,9.23633 l -0.008,0.0215 -0.008,0.0156 c -0.55589,1.84751 -1.32853,3.11593 -2.22851,3.9043 -0.89998,0.78833 -1.94386,1.16601 -3.36719,1.16601 -1.67397,0 -2.9413,-0.523 -4.09765,-1.67383 -1.16482,-1.23144 -1.64454,-2.38166 -1.64454,-3.64062 0,-3.09668 0.97944,-6.26014 3.04883,-9.55078 h 0.006 c 2.03973,-3.27693 5.0169,-6.00478 9.02149,-8.19531 3.95006,-2.16072 8.57188,-3.26172 13.95117,-3.26172 z m -1.28515,62.29687 c -2.59061,0 -4.93264,0.92689 -6.74024,2.69336 -1.80933,1.76822 -2.75976,4.08525 -2.75976,6.65235 0,2.823 0.95662,5.27393 2.86328,6.96875 l 0.0156,0.008 0.008,0.006 c 1.86936,1.58491 4.14457,2.41406 6.61329,2.41406 2.41504,0 4.65437,-0.8614 6.48242,-2.48633 1.90238,-1.69103 2.86328,-4.11867 2.86328,-6.91015 0,-2.55984 -0.9302,-4.87352 -2.70117,-6.64453 -1.77101,-1.77098 -4.0847,-2.70118 -6.64453,-2.70118 z m 0,2.73828 c 1.93636,0 3.41117,0.60649 4.70898,1.9043 1.29778,1.29782 1.89844,2.7668 1.89844,4.70313 0,2.20422 -0.64014,3.6996 -1.94922,4.86328 -1.38354,1.22978 -2.86251,1.79492 -4.6582,1.79492 -1.87866,0 -3.4104,-0.56719 -4.82032,-1.75781 -1.29672,-1.15847 -1.9414,-2.66333 -1.9414,-4.90039 0,-1.92907 0.61056,-3.39471 1.9414,-4.69532 1.33259,-1.30227 2.84347,-1.91211 4.82032,-1.91211 z m 0.64363,87.40233 c 0.66187,0 1.28321,0.62324 1.28321,1.28515 0,0.66187 -0.62134,1.27735 -1.28321,1.27735 -0.66191,0 -1.27734,-0.61548 -1.27734,-1.27735 0,-0.66191 0.61543,-1.28515 1.27734,-1.28515 z"
         style="color:#000000;font-style:normal;font-variant:normal;font-weight:normal;font-stretch:normal;font-size:medium;line-height:normal;font-family:sans-serif;font-variant-ligatures:normal;font-variant-position:normal;font-variant-caps:normal;font-variant-numeric:normal;font-variant-alternates:normal;font-feature-settings:normal;text-indent:0;text-align:start;text-decoration:none;text-decoration-line:none;text-decoration-style:solid;text-decoration-color:#000000;letter-spacing:normal;word-spacing:normal;text-transform:none;writing-mode:lr-tb;direction:ltr;text-orientation:mixed;dominant-baseline:auto;baseline-shift:baseline;text-anchor:start;white-space:normal;shape-padding:0;clip-rule:nonzero;display:inline;overflow:visible;visibility:visible;opacity:1;isolation:auto;mix-blend-mode:normal;color-interpolation:sRGB;color-interpolation-filters:linearRGB;solid-color:#000000;solid-opacity:1;vector-effect:none;fill:url(#linearGradient4778);fill-opacity:1;fill-rule:nonzero;stroke:none;stroke-width:7.55905533;stroke-linecap:round;stroke-linejoin:round;stroke-miterlimit:4;stroke-dasharray:none;stroke-dashoffset:0;stroke-opacity:1;color-rendering:auto;image-rendering:auto;shape-rendering:auto;text-rendering:auto;enable-background:accumulate"
         id="path4578"
         inkscape:connector-curvature="0" />
      <g
         id="text4740"
         style="font-style:normal;font-variant:normal;font-weight:normal;font-stretch:normal;font-size:29.26775169px;line-height:1.25;font-family:'Arial Rounded MT Bold';-inkscape-font-specification:'Arial Rounded MT Bold, ';letter-spacing:0px;word-spacing:0px;fill:url(#linearGradient4769);fill-opacity:1;stroke:none;stroke-width:1.02810681;stroke-miterlimit:4;stroke-dasharray:none;stroke-opacity:1"
         transform="scale(0.99865486,1.001347)"
         aria-label="?">
        <path
           inkscape:connector-curvature="0"
           id="path4760"
           style="font-style:normal;font-variant:normal;font-weight:normal;font-stretch:normal;font-family:'Arial Rounded MT Bold';-inkscape-font-specification:'Arial Rounded MT Bold, ';fill:url(#linearGradient4771);fill-opacity:1;stroke:none;stroke-width:1.02810681;stroke-miterlimit:4;stroke-dasharray:none;stroke-opacity:1"
           d="m 96.393442,189.51218 q 0,-1.35763 0.871745,-2.74385 0.871744,-1.40051 2.543779,-2.31512 1.672034,-0.91462 3.901414,-0.91462 2.07218,0 3.65847,0.77171 1.58629,0.75742 2.44374,2.07218 0.87175,1.31476 0.87175,2.85818 0,1.21472 -0.50018,2.12934 -0.4859,0.91462 -1.17186,1.58629 -0.67167,0.65738 -2.42945,2.22938 -0.48589,0.44302 -0.786,0.786 -0.28582,0.32869 -0.42873,0.61451 -0.14291,0.27152 -0.22865,0.55734 -0.0714,0.27153 -0.22865,0.97178 -0.27153,1.48626 -1.70062,1.48626 -0.74313,0 -1.2576,-0.4859 -0.50018,-0.48589 -0.50018,-1.44338 0,-1.20043 0.37156,-2.07218 0.37157,-0.88603 0.98607,-1.54341 0.61451,-0.67167 1.65775,-1.58629 0.91461,-0.80029 1.31476,-1.20044 0.41444,-0.41443 0.68596,-0.91461 0.28582,-0.50018 0.28582,-1.08611 0,-1.14327 -0.85745,-1.92927 -0.84317,-0.786 -2.18651,-0.786 -1.572,0 -2.31512,0.80029 -0.74313,0.786 -1.2576,2.32941 -0.485894,1.61488 -1.843529,1.61488 -0.80029,0 -1.357635,-0.55735 -0.543054,-0.57163 -0.543054,-1.22902 z M 103.3674,205.175 q -0.87175,0 -1.52913,-0.55734 -0.64309,-0.57164 -0.64309,-1.58629 0,-0.90033 0.6288,-1.51483 0.6288,-0.61451 1.54342,-0.61451 0.90032,0 1.51483,0.61451 0.61451,0.6145 0.61451,1.51483 0,1.00036 -0.64309,1.572 -0.64309,0.57163 -1.48625,0.57163 z" />
      </g>
    </g>
  </g>
</svg>
